<svg xmlns="http://www.w3.org/2000/svg" viewBox="0 0 96 96" width="72px" height="72px">
    <path d="M48,81A33,33,0,1,1,81,48,33.03257,33.03257,0,0,1,48,81Zm0-62A29,29,0,1,0,77,48,29.03369,29.03369,0,0,0,48,19ZM34,49.63h4.68V44.98h4.06v4.71h2.42v3.5H42.74V58H38.68V53.19H29.47V49.94l7.35-13.73h4.37ZM57.65,39.46a5.57756,5.57756,0,0,0-2.63.59,5.15771,5.15771,0,0,0-1.83,1.61,7.29284,7.29284,0,0,0-1.07,2.43,12.26464,12.26464,0,0,0-.36,3.05,12.99967,12.99967,0,0,0,.33,3.02,6.5727,6.5727,0,0,0,1.04,2.37,4.95664,4.95664,0,0,0,1.83,1.56,5.78366,5.78366,0,0,0,2.67.57,10.1284,10.1284,0,0,0,1.63-.12c.49-.08.93-.18,1.35-.28V48.87H56.64V45.2h7.9V57.14q-.345.15-.96.39a12.645,12.645,0,0,1-1.55.45,21.52878,21.52878,0,0,1-2.17.37,23.625,23.625,0,0,1-2.82.16,10.87889,10.87889,0,0,1-4.22-.77,8.1997,8.1997,0,0,1-3.07-2.23,9.83477,9.83477,0,0,1-1.88-3.56,16.75126,16.75126,0,0,1-.64-4.8,15.5415,15.5415,0,0,1,.65-4.6,10.11054,10.11054,0,0,1,1.92-3.6,8.78384,8.78384,0,0,1,3.15-2.34,10.56562,10.56562,0,0,1,4.36-.84,11.72909,11.72909,0,0,1,3.84.59,10.1454,10.1454,0,0,1,3.01,1.63l-1.83,3.08a11.01776,11.01776,0,0,0-1.88-1.04A6.27957,6.27957,0,0,0,57.65,39.46Z"/></svg>