<svg xmlns="http://www.w3.org/2000/svg" viewBox="0 0 96 96" width="72px" height="72px">
    <path fill="#231f20" d="M30,31a7,7,0,1,1,7-7A7.00769,7.00769,0,0,1,30,31Zm0-10a3,3,0,1,0,3,3A3.00882,3.00882,0,0,0,30,21ZM48,31a7,7,0,1,1,7-7A7.00769,7.00769,0,0,1,48,31Zm0-10a3,3,0,1,0,3,3A3.00882,3.00882,0,0,0,48,21ZM66,31a7,7,0,1,1,7-7A7.00769,7.00769,0,0,1,66,31Zm0-10a3,3,0,1,0,3,3A3.00882,3.00882,0,0,0,66,21ZM30,47a7,7,0,1,1,7-7A7.00769,7.00769,0,0,1,30,47Zm0-10a3,3,0,1,0,3,3A3.00882,3.00882,0,0,0,30,37ZM48,47a7,7,0,1,1,7-7A7.00769,7.00769,0,0,1,48,47Zm0-10a3,3,0,1,0,3,3A3.00882,3.00882,0,0,0,48,37ZM66,47a7,7,0,1,1,7-7A7.00769,7.00769,0,0,1,66,47Zm0-10a3,3,0,1,0,3,3A3.00882,3.00882,0,0,0,66,37ZM30,63a7,7,0,1,1,7-7A7.00769,7.00769,0,0,1,30,63Zm0-10a3,3,0,1,0,3,3A3.00882,3.00882,0,0,0,30,53ZM48,63a7,7,0,1,1,7-7A7.00769,7.00769,0,0,1,48,63Zm0-10a3,3,0,1,0,3,3A3.00882,3.00882,0,0,0,48,53Zm0,26a7,7,0,1,1,7-7A7.00769,7.00769,0,0,1,48,79Zm0-10a3,3,0,1,0,3,3A3.00882,3.00882,0,0,0,48,69Zm18-6a7,7,0,1,1,7-7A7.00769,7.00769,0,0,1,66,63Zm0-10a3,3,0,1,0,3,3A3.00882,3.00882,0,0,0,66,53Z"/>
</svg>