<svg xmlns="http://www.w3.org/2000/svg" viewBox="0 0 96 96" width="72px" height="72px">
    <path fill="#231f20" d="M61.24,50.41,77,34.66a8.01521,8.01521,0,0,0,0-11.32L72.66,19a8.01521,8.01521,0,0,0-11.32,0L45.59,34.76,31.41,20.59a2.05757,2.05757,0,0,0-.89-.52l-11-3a1.996,1.996,0,0,0-1.94.52,2.01942,2.01942,0,0,0-.52,1.94l3,11a1.96393,1.96393,0,0,0,.52.89L34.75,45.59,19,61.34a8.00313,8.00313,0,0,0,0,11.31L23.34,77a8.01521,8.01521,0,0,0,11.32,0L50.42,61.24,65.59,76.41A7.65444,7.65444,0,0,0,76.41,65.58Zm-2.83,2.83L68.17,63,63,68.17l-9.76-9.76ZM37.59,42.76,28.83,34,34,28.82l8.76,8.76ZM21.85,21.85l7.11,1.94L31.17,26,26,31.17l-2.21-2.21ZM29,75.34a3.99831,3.99831,0,0,1-2.83-1.17l-4.34-4.34a4.0076,4.0076,0,0,1,0-5.66L39,47l8-8L64.17,21.83a4.00761,4.00761,0,0,1,5.66,0l4.34,4.34a4.0076,4.0076,0,0,1,0,5.66l-1.76,1.76h0l-4-4a2.00112,2.00112,0,1,0-2.83,2.83l4,4h0l-3.17,3.17h0l-2-2a2.00112,2.00112,0,0,0-2.83,2.83l2,2h0l-3.17,3.17h0l-4-4a2.00112,2.00112,0,0,0-2.83,2.83l4,4-2,2h0l-1.17,1.17h0l-2-2a2.00112,2.00112,0,0,0-2.83,2.83l2,2h0l-1.17,1.17h0l-2,2-4-4a2.00112,2.00112,0,0,0-2.83,2.83l4,4h0l-3.17,3.17h0l-2-2a2.00112,2.00112,0,0,0-2.83,2.83l2,2h0l-3.17,3.17h0l-4-4a2.00111,2.00111,0,1,0-2.83,2.83l4,4h0l-1.76,1.76A3.99,3.99,0,0,1,29,75.34Zm44.59-1.75a3.6515,3.6515,0,0,1-5.17,0L65.83,71,71,65.83l2.59,2.59A3.66969,3.66969,0,0,1,73.59,73.59Z"/>
</svg>