<svg xmlns="http://www.w3.org/2000/svg" viewBox="0 0 96 96" width="72px" height="72px">
    <path fill="#231f20" d="M81.11,36.19a1.99853,1.99853,0,0,0-.07-2.47l-12.5-15A2,2,0,0,0,67,18H29a2,2,0,0,0-1.54.72l-12.5,15a1.98628,1.98628,0,0,0-.05,2.49L46.9,78.2h0l.01.01a2.00235,2.00235,0,0,0,.39.38.91385.91385,0,0,0,.13.08,1.80579,1.80579,0,0,0,.37.18.88.88,0,0,0,.15.05,1.72408,1.72408,0,0,0,.55.1h.02a1.97868,1.97868,0,0,0,.55-.09c.05-.02.1-.04.16-.06a1.54665,1.54665,0,0,0,.36-.19c.04-.03.09-.06.13-.09a2.05768,2.05768,0,0,0,.39-.39l.01-.01h0ZM67.78,24.06,75.23,33H64.88ZM60.68,33H35.56L31.8,22H64.25Zm-1.3,4L48.45,70.67,36.93,37ZM31.33,33H20.77l7.49-8.99Zm1.37,4,9.91,28.98L20.54,37Zm30.89,0H75.54L54.2,65.9Z"/>
</svg>