<svg xmlns="http://www.w3.org/2000/svg" viewBox="0 0 96 96" width="72px" height="72px">
    <path fill="#231f20" d="M64,26a5,5,0,1,1-5,5A5,5,0,0,1,64,26ZM57,38a5,5,0,1,1-5,5A5,5,0,0,1,57,38Zm14,0a5,5,0,1,1-5,5A5,5,0,0,1,71,38ZM32,48A11,11,0,1,1,43,37,11.00658,11.00658,0,0,1,32,48Zm0-18a7,7,0,1,0,7,7A7.00769,7.00769,0,0,0,32,30ZM73,80A13.05429,13.05429,0,0,1,60.26,69.62a50.27206,50.27206,0,0,0-1.49-5.92l-1.38-4.11a1.99091,1.99091,0,0,0-1.9-1.36H40.5a2.01353,2.01353,0,0,0-1.9,1.36L37.22,63.7a50.21921,50.21921,0,0,0-1.48,5.92A13.00372,13.00372,0,0,1,10,67l.01-.19L13,34.9A18.9883,18.9883,0,0,1,46.43,22.66a2.08266,2.08266,0,0,0,3.15,0A18.98143,18.98143,0,0,1,83,34.9L86,67A13.01244,13.01244,0,0,1,73,80ZM61.19,58.31l1.38,4.11a52.58258,52.58258,0,0,1,1.61,6.4A9.00354,9.00354,0,0,0,82,67.09L79,35a14.988,14.988,0,0,0-26.39-9.74,6.01735,6.01735,0,0,1-9.22,0A14.988,14.988,0,0,0,17,35l-.01.19L14,67.09a9.00354,9.00354,0,0,0,17.82,1.73,54.49207,54.49207,0,0,1,1.61-6.4l1.38-4.11a5.99155,5.99155,0,0,1,5.69-4.09h15a5.99155,5.99155,0,0,1,5.69,4.09Z"/></svg>