<svg xmlns="http://www.w3.org/2000/svg" viewBox="0 0 96 96" width="72px" height="72px">
    <path fill="#231f20" d="M62,47H34a2.00588,2.00588,0,0,1-2-2V20A10.0165,10.0165,0,0,1,42,10H54A10.0165,10.0165,0,0,1,64,20V45A2.00588,2.00588,0,0,1,62,47ZM36,43H60V20a6.00475,6.00475,0,0,0-6-6H42a6.00475,6.00475,0,0,0-6,6ZM54,86H42A10.0165,10.0165,0,0,1,32,76V51a2.00588,2.00588,0,0,1,2-2H62a2.00588,2.00588,0,0,1,2,2V76A10.0165,10.0165,0,0,1,54,86ZM36,53V76a6.00475,6.00475,0,0,0,6,6H54a6.00475,6.00475,0,0,0,6-6V53Zm6,10H40a2.00588,2.00588,0,0,1-2-2V60a2.00588,2.00588,0,0,1,2-2h2a2.00588,2.00588,0,0,1,2,2v1A2.00588,2.00588,0,0,1,42,63Zm7,0H47a2.00588,2.00588,0,0,1-2-2V60a2.00588,2.00588,0,0,1,2-2h2a2.00588,2.00588,0,0,1,2,2v1A2.00588,2.00588,0,0,1,49,63Zm7,0H54a2.00588,2.00588,0,0,1-2-2V60a2.00588,2.00588,0,0,1,2-2h2a2.00588,2.00588,0,0,1,2,2v1A2.00588,2.00588,0,0,1,56,63ZM42,70H40a2.00588,2.00588,0,0,1-2-2V67a2.00588,2.00588,0,0,1,2-2h2a2.00588,2.00588,0,0,1,2,2v1A2.00588,2.00588,0,0,1,42,70Zm7,0H47a2.00588,2.00588,0,0,1-2-2V67a2.00588,2.00588,0,0,1,2-2h2a2.00588,2.00588,0,0,1,2,2v1A2.00588,2.00588,0,0,1,49,70Zm7,0H54a2.00588,2.00588,0,0,1-2-2V67a2.00588,2.00588,0,0,1,2-2h2a2.00588,2.00588,0,0,1,2,2v1A2.00588,2.00588,0,0,1,56,70ZM42,77H40a2.00588,2.00588,0,0,1-2-2V74a2.00588,2.00588,0,0,1,2-2h2a2.00588,2.00588,0,0,1,2,2v1A2.00588,2.00588,0,0,1,42,77Zm7,0H47a2.00588,2.00588,0,0,1-2-2V74a2.00588,2.00588,0,0,1,2-2h2a2.00588,2.00588,0,0,1,2,2v1A2.00588,2.00588,0,0,1,49,77Zm7,0H54a2.00588,2.00588,0,0,1-2-2V74a2.00588,2.00588,0,0,1,2-2h2a2.00588,2.00588,0,0,1,2,2v1A2.00588,2.00588,0,0,1,56,77Z"/>
</svg>