<svg xmlns="http://www.w3.org/2000/svg" viewBox="0 0 96 96" width="72px" height="72px">
<path fill="#231f20" d="M74.83,19.64a5.698,5.698,0,0,0-4.87-1.1l-29.5,6.81A5.73412,5.73412,0,0,0,36,30.95V59.52A10.99641,10.99641,0,1,0,40,68V42.55l33-7.62V54.52A10.99641,10.99641,0,1,0,77,63c0-.23-.02-.45-.03-.67H77V24.13A5.69143,5.69143,0,0,0,74.83,19.64ZM29,75a7,7,0,1,1,7-7A7.00769,7.00769,0,0,1,29,75Zm37-5a7,7,0,1,1,7-7A7.00769,7.00769,0,0,1,66,70Zm7-39.17L40,38.45v-7.5a1.7536,1.7536,0,0,1,1.36-1.71l29.5-6.81a1.71947,1.71947,0,0,1,1.49.33A1.786,1.786,0,0,1,73,24.14Z"/>
</svg>