<svg xmlns="http://www.w3.org/2000/svg" viewBox="0 0 96 96" width="72px" height="72px">
    <path fill="#231f20" d="M48,71A19,19,0,1,1,67,52,19.0172,19.0172,0,0,1,48,71Zm0-34A15,15,0,1,0,63,52,15.01831,15.01831,0,0,0,48,37ZM76,79H20A10.0165,10.0165,0,0,1,10,69V37A10.0165,10.0165,0,0,1,20,27h9.58l2.09-5.98A6.01383,6.01383,0,0,1,37.33,17H58.65a5.99068,5.99068,0,0,1,5.66,4.02L66.42,27H76A10.0165,10.0165,0,0,1,86,37V69A10.0165,10.0165,0,0,1,76,79ZM20,31a6.00475,6.00475,0,0,0-6,6V69a6.00475,6.00475,0,0,0,6,6H76a6.00475,6.00475,0,0,0,6-6V37a6.00475,6.00475,0,0,0-6-6H65a2.00567,2.00567,0,0,1-1.89-1.34l-2.56-7.32A2.00567,2.00567,0,0,0,58.66,21H37.34a2.00567,2.00567,0,0,0-1.89,1.34l-2.56,7.32A2.00567,2.00567,0,0,1,31,31Z"/>
</svg>