<svg height="72" viewBox="0 0 96 96" width="72" xmlns="http://www.w3.org/2000/svg"><path d="m51.21 18.53a2 2 0 0 0 -1.21.47l-16.53 12.79h-10.68a5.8 5.8 0 0 0 -5.79 5.79v20.84a5.8 5.8 0 0 0 5.79 5.79h10.68l16.53 12.84a2 2 0 0 0 1.23.42 5.79 5.79 0 0 0 5.77-5.79v-47.36a5.79 5.79 0 0 0 -5.79-5.79zm-30.21 39.89v-20.84a1.79 1.79 0 0 1 1.79-1.79h9.21v24.42h-9.21a1.79 1.79 0 0 1 -1.79-1.79zm32 13.26a1.79 1.79 0 0 1 -1.22 1.7l-15.78-12.27v-26.22l15.78-12.27a1.79 1.79 0 0 1 1.22 1.7zm13.47-12.21a2 2 0 0 1 -2.83-2.83 12.22 12.22 0 0 0 0-17.28 2 2 0 0 1 2.83-2.83 16.25 16.25 0 0 1 0 22.94zm6.4 6.4a2 2 0 0 1 -2.87-2.87 21.3 21.3 0 0 0 0-30 2 2 0 0 1 2.83-2.83 25.31 25.31 0 0 1 .04 35.7z" fill="#231f20"/></svg>